<svg xmlns="http://www.w3.org/2000/svg" xmlns:xlink="http://www.w3.org/1999/xlink" viewBox="0 0 400 300" width="406" height="306" class="illustration styles_illustrationTablet__1DWOa"><defs><linearGradient id="linear-gradient" x1="75" y1="167.53" x2="46.74" y2="189.42" gradientUnits="userSpaceOnUse"><stop offset="0" stop-color="#00a99d"></stop><stop offset="1" stop-color="#fff"></stop></linearGradient><linearGradient id="linear-gradient-2" x1="324.97" y1="189.86" x2="302.28" y2="207.38" xlink:href="#linear-gradient"></linearGradient><linearGradient id="linear-gradient-3" x1="219.18" y1="176.98" x2="132.78" y2="224.5" gradientUnits="userSpaceOnUse"><stop offset="0" stop-color="#534741"></stop><stop offset="1" stop-color="#fff"></stop></linearGradient></defs><title>PP</title><g style="isolation: isolate;"><g id="Layer_2" data-name="Layer 2"><path d="M196.24,288.6,23.74,186.65c-5.49-3.08-10.2-8.15-4.85-11.46L192,75.41c2.6-1.61,6.54-2.66,9.18-1.13L382.28,179.37c5.49,3.19,6.48,12.1,1,15.29L219,288.44A22.94,22.94,0,0,1,196.24,288.6Z" fill="#85c440"></path><polygon points="71.2 214.2 141.34 255.65 327.88 147.17 255.64 105.24 71.2 214.2" fill="#e2d2cf"></polygon><ellipse cx="93.59" cy="209.64" rx="5.07" ry="2.88" fill="#bca3a0"></ellipse><ellipse cx="114.37" cy="208.17" rx="5.07" ry="2.88" fill="#bca3a0"></ellipse><ellipse cx="121.3" cy="194.57" rx="5.07" ry="2.88" fill="#bca3a0"></ellipse><ellipse cx="116.58" cy="226.7" rx="5.07" ry="2.88" fill="#bca3a0"></ellipse><ellipse cx="140.17" cy="244.48" rx="5.07" ry="2.88" fill="#bca3a0"></ellipse><ellipse cx="135.1" cy="218.58" rx="5.07" ry="2.88" fill="#bca3a0"></ellipse><ellipse cx="165.6" cy="220.04" rx="5.07" ry="2.88" fill="#bca3a0"></ellipse><ellipse cx="186.38" cy="218.58" rx="5.07" ry="2.88" fill="#bca3a0"></ellipse><ellipse cx="193.32" cy="204.98" rx="5.07" ry="2.88" fill="#bca3a0"></ellipse><ellipse cx="137.37" cy="192.23" rx="5.07" ry="2.88" fill="#bca3a0"></ellipse><ellipse cx="158.15" cy="190.76" rx="5.07" ry="2.88" fill="#bca3a0"></ellipse><ellipse cx="165.09" cy="177.16" rx="5.07" ry="2.88" fill="#bca3a0"></ellipse><ellipse cx="196.73" cy="181.77" rx="5.07" ry="2.88" fill="#bca3a0"></ellipse><ellipse cx="210.82" cy="194.57" rx="5.07" ry="2.88" fill="#bca3a0"></ellipse><ellipse cx="194.61" cy="167.66" rx="5.07" ry="2.88" fill="#bca3a0"></ellipse><ellipse cx="272.27" cy="157.76" rx="5.07" ry="2.88" fill="#bca3a0"></ellipse><ellipse cx="293.05" cy="156.29" rx="5.07" ry="2.88" fill="#bca3a0"></ellipse><ellipse cx="299.99" cy="142.69" rx="5.07" ry="2.88" fill="#bca3a0"></ellipse><ellipse cx="231.7" cy="132.14" rx="5.07" ry="2.88" fill="#bca3a0"></ellipse><ellipse cx="252.48" cy="130.67" rx="5.07" ry="2.88" fill="#bca3a0"></ellipse><ellipse cx="259.42" cy="117.07" rx="5.07" ry="2.88" fill="#bca3a0"></ellipse><ellipse cx="254.35" cy="172.62" rx="5.07" ry="2.88" fill="#bca3a0"></ellipse><ellipse cx="265.22" cy="147.57" rx="5.07" ry="2.88" fill="#bca3a0"></ellipse><ellipse cx="272.16" cy="133.98" rx="5.07" ry="2.88" fill="#bca3a0"></ellipse><path d="M56.07,202.1c8.74-5.15,21.85-19.5,30.2-25.27L79,163.8,25.87,185.3C31,189.68,50.79,197.93,56.07,202.1Z" opacity="0.68" fill="url(#linear-gradient)" style="mix-blend-mode: multiply;"></path><rect x="73.9" y="97.7" width="12.37" height="82" rx="1.74" ry="1.74" fill="#bc532a"></rect><path d="M110.62,114.47c-2.85-12.37-15.52-66.9-38-50.87-11.5,8.21-14.75,21-19.36,33.59-3.81,10.4-7,21.33-7.15,32.48-.36,22.69,22.72,25.46,40.38,25.38,10.18,0,24.71-6.06,27.09-17.11,1.43-6.67-1-14.53-2.43-21.06Q110.9,115.68,110.62,114.47Z" fill="#2c9135"></path><path d="M111.7,116.88q-.26-1.21-.54-2.41c-2.52-10.94-12.72-54.84-30.58-53.77C85.88,83.84,93.7,108.3,89.53,132a54.17,54.17,0,0,1-9.45,22.93c2.37.12,4.71.15,7,.14,10.18,0,24.71-6.06,27.09-17.11C115.57,131.27,113.13,123.41,111.7,116.88Z" fill="#156819"></path><path d="M302.91,221.45c5.65-3.33,29.68-22,35.09-25.72l-4.69-8.44-52.69,20.87C283.94,211,299.5,218.75,302.91,221.45Z" opacity="0.68" fill="url(#linear-gradient-2)" style="mix-blend-mode: multiply;"></path><rect x="329.99" y="144.52" width="8.01" height="53.07" rx="1.74" ry="1.74" fill="#bc532a"></rect><path d="M353.76,155.38c-1.85-8-10-43.3-24.58-32.92-7.44,5.31-9.55,13.62-12.53,21.74-2.47,6.73-4.51,13.81-4.63,21-.23,14.68,14.7,16.48,26.13,16.42,6.59,0,16-3.92,17.53-11.07.93-4.31-.65-9.4-1.58-13.63Q353.94,156.16,353.76,155.38Z" fill="#2c9135"></path><path d="M354.46,156.93q-.17-.78-.35-1.56c-1.63-7.08-8.23-35.49-19.79-34.8,3.43,15,8.49,30.8,5.79,46.13A35.06,35.06,0,0,1,334,181.54c1.53.08,3,.1,4.51.09,6.59,0,16-3.92,17.53-11.07C357,166.25,355.38,161.16,354.46,156.93Z" fill="#156819"></path><path d="M130,235.61c5.65-3.33,105.83-58.2,111.24-61.94l11.17-14L116.58,223.82C119.9,226.65,126.61,232.91,130,235.61Z" opacity="0.68" fill="url(#linear-gradient-3)" style="mix-blend-mode: multiply;"></path><line x1="235.9" y1="172.35" x2="246.13" y2="117.67" fill="none" stroke="#754c24" stroke-miterlimit="10" stroke-width="0.5"></line><path d="M228.06,171.33c0-.45,26.39-51.49,26.39-51.49" fill="none" stroke="#754c24" stroke-miterlimit="10" stroke-width="0.5"></path><line x1="260.11" y1="125.82" x2="223.89" y2="164.11" fill="none" stroke="#754c24" stroke-miterlimit="10" stroke-width="0.5"></line><line x1="260.11" y1="135.22" x2="222.32" y2="156.8" fill="none" stroke="#754c24" stroke-miterlimit="10" stroke-width="0.5"></line><line x1="256.38" y1="149.44" x2="223.53" y2="144.43" fill="none" stroke="#754c24" stroke-miterlimit="10" stroke-width="0.5"></line><line x1="252.43" y1="159.71" x2="229.08" y2="135.22" fill="none" stroke="#754c24" stroke-miterlimit="10" stroke-width="0.5"></line><line x1="244.76" y1="169.86" x2="237.54" y2="122.7" fill="none" stroke="#754c24" stroke-miterlimit="10" stroke-width="0.5"></line><path d="M233.85,175.56a12.54,12.54,0,0,1-4.65-.88c-5-2-8.38-7.12-9.41-14.42-1-6.84.21-14.9,3.3-22.7s7.76-14.48,13.14-18.8c5.75-4.61,11.69-6.06,16.73-4.06,10.09,4,12.78,20.3,6.11,37.12h0C253.4,166.15,243,175.56,233.85,175.56Zm14.47-57.11c-2.81,0-6,1.33-9.2,3.92-4.77,3.83-8.94,9.83-11.74,16.9s-3.87,14.3-3,20.36c.79,5.59,3.11,9.41,6.54,10.77,7.42,2.94,18.37-6.34,23.89-20.27h0c5.52-13.93,3.9-28.19-3.53-31.13A7.94,7.94,0,0,0,248.32,118.45Z" fill="#51423e"></path><path d="M237.53,145.78c-.23.15-14.5,11-14.5,11v1.89l15.85-11.4" fill="#da4b73"></path><path d="M212.31,162.92l-4.53-13s-2.94,4-3.55,4a28.94,28.94,0,0,1-3.54-.88l7.39-9.16s2.19.53,2.42,1.21-1.69,3.32-1.69,3.32l4.64,14,2.87,11.17L219.11,184s7.25,4.61,7.63,4.53,2-4,1.89-4.76-8.91-4.53-8.91-4.53l-1.81-8.17" fill="#da4b73"></path><path d="M197,146.73a11.15,11.15,0,0,0,.79,3.22c.57,1,1.7,1.88,4.41,1s5.53-4.61,6.44-6.24,2.62-6,3.09-7.11-1.16-5.58-1.16-5.58" fill="#404040"></path><path d="M204.23,130.31s-2.83,9.82-4.42,12-3.58,3.84-2.47,5.26,3.12,3.26,7.74-1.63,4.18-9.11,5.41-11.27-1.45-4.82-1.45-4.82" fill="#da4b73"></path><path d="M189.27,119.6l14.62,15.81s2.88-.75,4-2.07-11.48-19-11.48-19S189.27,115.08,189.27,119.6Z" fill="#ffcaa6"></path><polygon points="177.29 142.88 222.56 116.59 241.21 146.24 237.45 149.32 221.35 123.43 177.56 146.91 177.56 149.32 211.02 163.14 209.25 166.43 176.41 152.54 177.29 142.88" fill="#da4b73"></polygon><ellipse cx="214.66" cy="166.87" rx="7.85" ry="5.95" transform="translate(-16.19 310.51) rotate(-69.75)" fill="#51423e"></ellipse><path d="M237.45,149.32l.68,1L223,161l.91,3.32,17.74-13.89s2.14-2-.48-4.14" fill="#da4b73"></path><ellipse cx="239.96" cy="148.53" rx="5.5" ry="3.92" transform="translate(-0.89 295.63) rotate(-63.17)" fill="#6d6d6d"></ellipse><path d="M173,155.88a58.63,58.63,0,0,1,2.12-7.68,5.21,5.21,0,0,0-.88,0s-1.41,0-2.94,2.23c-1.24,1.81-7.6,30.84-7.6,30.84l2.77,1.22s4.64-19.52,6.83-25.84A.76.76,0,0,1,173,155.88Z" fill="#434343"></path><ellipse cx="163.74" cy="185.3" rx="5.5" ry="3.92" transform="translate(-75.52 247.78) rotate(-63.17)" fill="#434343"></ellipse><line x1="160.35" y1="213.54" x2="170.58" y2="158.86" fill="none" stroke="#754c24" stroke-miterlimit="10" stroke-width="0.5"></line><path d="M152.52,212.51c0-.45,24.15-51.45,24.15-51.45" fill="none" stroke="#754c24" stroke-miterlimit="10" stroke-width="0.5"></path><line x1="180.84" y1="165.69" x2="148.34" y2="205.29" fill="none" stroke="#754c24" stroke-miterlimit="10" stroke-width="0.5"></line><line x1="183.32" y1="179" x2="148.34" y2="194.57" fill="none" stroke="#754c24" stroke-miterlimit="10" stroke-width="0.5"></line><line x1="180.84" y1="190.62" x2="150.35" y2="185.49" fill="none" stroke="#754c24" stroke-miterlimit="10" stroke-width="0.5"></line><line x1="176.89" y1="200.89" x2="153.53" y2="176.41" fill="none" stroke="#754c24" stroke-miterlimit="10" stroke-width="0.5"></line><line x1="169.22" y1="211.05" x2="162" y2="163.88" fill="none" stroke="#754c24" stroke-miterlimit="10" stroke-width="0.5"></line><path d="M158.31,216.74a12.54,12.54,0,0,1-4.65-.88c-5-2-8.38-7.12-9.41-14.42-1-6.84.21-14.9,3.3-22.7s7.76-14.48,13.14-18.8c5.75-4.61,11.69-6.06,16.73-4.06,10.09,4,12.78,20.3,6.11,37.12h0C177.86,207.33,167.49,216.74,158.31,216.74Zm14.47-57.11c-2.81,0-6,1.33-9.2,3.92-4.77,3.83-8.94,9.83-11.74,16.9s-3.87,14.3-3,20.36c.79,5.59,3.11,9.41,6.54,10.77,7.42,2.94,18.37-6.34,23.89-20.27h0c5.52-13.93,3.9-28.19-3.53-31.13A7.94,7.94,0,0,0,172.77,159.63Z" fill="#51423e"></path><path d="M178.31,149.45a5.42,5.42,0,0,0-1.64-.91,66,66,0,0,0-1.9,6.66,12.94,12.94,0,0,1-.51,3.59l-8.42,27.09,3.07.91,10.34-32.65S180.15,151,178.31,149.45Z" fill="#434343"></path><path d="M175,154.17s-.41-1.17-2.23.2l1-6.09a3.12,3.12,0,0,1,2.88.25" fill="#434343"></path><path d="M177.76,104.16s-6.5,3.12-7.09,6.84,6.58,6.33,6.58,6.33l7.6,4.3A20.16,20.16,0,0,0,197,124.5a20.76,20.76,0,0,0,11-4.81s2,.68,1.43,2.19-6.5,5.06-11.31,5.57a25.3,25.3,0,0,1-13.7-3.12C181.47,122.56,173,119,173,119s-4.56-3.38-5.23-5.57.51-8.44,7.68-10.55C175.48,102.89,178.18,102,177.76,104.16Z" fill="#434343"></path><path d="M172.71,120.6a3.13,3.13,0,0,1,0-3.62c1.27-2.1,2.73-1.78,2.73-1.78l10.35,5.4a3.56,3.56,0,0,0-3.12,2,3,3,0,0,0,.26,3.29Z" fill="#da4b73"></path><ellipse cx="184.4" cy="123.22" rx="3.03" ry="2.17" transform="matrix(0.5, -0.87, 0.87, 0.5, -14.51, 221.3)" fill="#da4b73"></ellipse><path d="M177.87,119.85l-4.08,29.6s1.35,1.64,4.52,0l4-28.72" fill="#da4b73"></path><ellipse cx="166.13" cy="188.43" rx="5.5" ry="3.92" transform="translate(-77 251.63) rotate(-63.17)" fill="#6d6d6d"></ellipse><path d="M216.72,183a11.15,11.15,0,0,0,1.52,3c.79.86,2.09,1.44,4.54,0s4.32-5.76,4.82-7.56,1.15-6.48,1.37-7.63-2.41-5.16-2.41-5.16" fill="#404040"></path><path d="M220,165.36s-.48,10.21-1.54,12.67-2.6,4.56-1.19,5.69,3.79,2.46,7.16-3.37,2-9.83,2.67-12.21-2.53-4.35-2.53-4.35" fill="#da4b73"></path><path d="M205.18,128.08a45.6,45.6,0,0,0,2.16,11.65c2.07,6.59,13.48,26.69,13.48,26.69s3.16.62,4.21-1.64-3.72-23.54-5.62-29.19a44.5,44.5,0,0,1-2.1-11.29Z" fill="#ffcaa6"></path><path d="M177.77,83.76s-4.42,15.9-6.36,18.32a60.11,60.11,0,0,0-5.17,8.56c-.81,1.62-1.45,3.72,0,4.85s4.68,3.55,5.33,2.26-.32-3.29,1.13-3.42l1.45-.13s.81.29.81-4.22,10-21.2,10-21.2Z" fill="#ffcaa6"></path><path d="M199.84,89.49c-1.53.75-13.58,16.81-13.58,21.11s3,9,3,9,10.21-2.63,10.56-3.39,8.44-18.63,8.44-18.63-5.25,29.2-3.1,30.5,9.87,3.37,12.32,1.86S227.82,100,221.9,92.88" fill="#404040"></path><path d="M198.3,64.64c10.35.81,17.25,3.91,19.41,7.91s4.2,22.87,4.2,22.87a30.56,30.56,0,0,1-9.12,5.24c-5.28,1.85-12-2.44-12.71-4.21s-9-14-9.22-14.26S186,88.34,185,88.78s-7.23-5-7.23-5c1.18-3,4.06-7.41,5.71-10.18,3.12-5.25,7.06-6.56,12.7-8.25A7.7,7.7,0,0,1,198.3,64.64Z" fill="#da4b73"></path><path d="M209.85,71.12c-1.42,0-4.45,3.42-4.44,13a82.19,82.19,0,0,1-2.25,19.3c-.74,3.43-3.66,15.55-5.11,17.1s-4,2.67-3.81,4.6-.27,4.62,1.23,5.54,7.25,0,8.06-.76,2.32-1.63,1.15-2.76-.28-3-.28-3,7.58-17.15,8.36-22,5.3-24.44,2.27-28.45S209.85,71.12,209.85,71.12Z" fill="#ffcaa6"></path><path d="M203.89,90.28s9.6,1.6,11.51,1.16,8.56-18-1.18-22.73S203.89,90.28,203.89,90.28Z" fill="#da4b73"></path><path d="M203.89,90.28s9.6,1.6,11.51,1.16,8.56-18-1.18-22.73S203.89,90.28,203.89,90.28Z" fill="#404040" opacity="0.32"></path><path d="M190.85,82.19l-4.31-12.38-.17.18c.41,3.53,1.78,15.35,1.52,15.66S190.85,82.19,190.85,82.19Z" fill="#404040" opacity="0.32"></path><path d="M199.2,61.52l3,4.84a6.4,6.4,0,0,1-5.86,6.3l-3.43-4.54" fill="#e5ac85"></path><path d="M199.12,53.48c-2.44-3.72-6.1-3.79-9.87-2.25-3.39,1.38-7.22,4.57-5.35,8.67,1.56,3.43,6.83,3.62,9.71,2A2.36,2.36,0,0,0,194.91,60l.32-.21a3.47,3.47,0,0,0,.61-.59,4.82,4.82,0,0,1-.43,3c-2,2.82,2.65,5.48,4.6,2.69C202.38,61.51,201.26,56.75,199.12,53.48Z" fill="#3f1d14"></path><path d="M187.49,59.45c-.54,0,1.59,11.93,7.29,11.4s5.3-7.69,5.3-8.22,2-2,1.06-3.18-3,.66-3,.66a4.21,4.21,0,0,0-3.65-3.31C191.2,56.27,192.66,59.05,187.49,59.45Z" fill="#ffcaa6"></path></g></g></svg>