<svg xmlns="http://www.w3.org/2000/svg" xmlns:xlink="http://www.w3.org/1999/xlink" viewBox="0 0 400 300" width="406" height="306" class="illustration styles_illustrationTablet__1DWOa"><defs><linearGradient id="linear-gradient" x1="152.63" y1="188.69" x2="111.19" y2="222.48" gradientUnits="userSpaceOnUse"><stop offset="0" stop-color="#d4a397"></stop><stop offset="1" stop-color="#fff"></stop></linearGradient><linearGradient id="linear-gradient-2" x1="237.95" y1="208.76" x2="199.7" y2="239.95" xlink:href="#linear-gradient"></linearGradient></defs><title>PP</title><g style="isolation: isolate;"><g id="Layer_2" data-name="Layer 2"><path d="M200.94,277,28.44,175.06c-5.49-3.08-10.2-8.15-4.85-11.46L196.71,63.82c2.6-1.61,6.54-2.66,9.18-1.13L387,167.78c5.49,3.19,6.48,12.1,1,15.29L223.68,276.84A22.94,22.94,0,0,1,200.94,277Z" fill="#ffad02"></path><ellipse cx="207.03" cy="177.23" rx="116.4" ry="64.42" fill="#ff9faf"></ellipse><ellipse cx="207.03" cy="170.21" rx="116.4" ry="64.42" fill="#facbd1"></ellipse><ellipse cx="208.82" cy="170.21" rx="87.63" ry="42.24" fill="#ff9faf"></ellipse><path d="M157.51,153.9l-22.67-7.22-76,45.58c9.47,8.15,93.08,54.54,103.67,61.27l16.28-21.69C177.67,229.23,159.08,156.32,157.51,153.9Z" fill="url(#linear-gradient)" style="mix-blend-mode: multiply;"></path><polygon points="108.69 125.97 108.69 191.49 178.79 231.83 259.19 144.85 259.19 79.33 108.69 125.97" fill="#da4b73"></polygon><polygon points="108.69 172.46 179 210.94 259.19 122.95 259.19 144.85 178.79 231.83 108.69 191.49 108.69 172.46" fill="#093e3e" opacity="0.43"></polygon><polygon points="108.69 125.97 178.79 157.24 259.19 79.33 108.69 125.97" fill="#fff" opacity="0.39"></polygon><path d="M180.26,88,196.43,26s8.59-2,11.37,3.29l-17.94,69.5Z" fill="#da4b73"></path><polygon points="194.03 35.22 201.42 54.06 198.04 67.14 190.31 49.46 194.03 35.22" fill="#093e3e" opacity="0.43"></polygon><polygon points="186.39 64.69 193.77 83.53 190.4 96.6 182.67 78.93 186.39 64.69" fill="#093e3e" opacity="0.43"></polygon><path d="M187.66,88.58l37-52.2s8.75,1.15,9.48,7.1L192.8,102.15Z" fill="#da4b73"></path><polygon points="219.2 44.13 219.44 64.36 211.66 75.4 210.68 56.14 219.2 44.13" fill="#093e3e" opacity="0.43"></polygon><polygon points="201.62 68.99 201.87 89.22 194.08 100.26 193.11 81 201.62 68.99" fill="#093e3e" opacity="0.43"></polygon><path d="M205.65,102.67a14.73,14.73,0,0,0,.41-5.52c-.71-6.57-5.12-10.39-10.56-12.1A13.44,13.44,0,0,0,195,82.7a14.3,14.3,0,0,0-4.85-6.84c-4.64-3.75-12.75.36-16-5.38a7.82,7.82,0,0,1,.09-7.61A6.66,6.66,0,0,0,170.72,64c-9,5.82-14.16,15.48-13.56,25.64A14.33,14.33,0,0,0,151,95.68a15,15,0,0,0-.77,12.55c-2.52,2.67-3.54,6.34-1.38,10.7,4.69,9.45,20.12,10.28,29.07,10.3,10.84,0,25.33-1,32.35-10.71C215.49,111.39,211.91,105.09,205.65,102.67Z" fill="#fff"></path><path d="M197.86,100.49a13.18,13.18,0,0,0-8.67-1.38,6,6,0,0,0-2-.41c-12.81-.52-18.94,18.48-9.83,26.62,9.95,8.88,27.81,3.9,28.22-10.34C205.76,109.18,203.08,103.3,197.86,100.49Z" fill="#db493a"></path><path d="M197,104.33c-2.1-.64-3,2.64-.9,3.28a4.44,4.44,0,0,1,3.1,4.49c-.09,2.19,3.31,2.18,3.4,0A7.89,7.89,0,0,0,197,104.33Z" fill="#fff" opacity="0.91"></path><path d="M200.14,116.55a1.7,1.7,0,0,0,0,3.4A1.7,1.7,0,0,0,200.14,116.55Z" fill="#fff" opacity="0.91"></path><path d="M197,79.45c.83-1.2-1.13-2.34-2-1.14a34,34,0,0,0-6.14,19.48,1.07,1.07,0,0,0-.59.38,1.88,1.88,0,0,0-.91,1.24,1.16,1.16,0,0,0,.52,1.28c1.25.67,3.52,1.14,4.36-.4a1.7,1.7,0,0,0-.7-2.24,2.15,2.15,0,0,0-.42-.18A32,32,0,0,1,197,79.45Z" fill="#4e4040"></path><path d="M145.07,121.16c-3.65,0-3.65,5.67,0,5.67S148.72,121.16,145.07,121.16Z" fill="#1c1713"></path><path d="M166.07,130.83c-3.65,0-3.65,5.67,0,5.67S169.72,130.83,166.07,130.83Z" fill="#1c1713"></path><path d="M215.37,95.92c-3.65,0-3.65,5.67,0,5.67S219,95.92,215.37,95.92Z" fill="#1c1713"></path><path d="M169.83,83.48a8.25,8.25,0,0,1-1.62-1.5,1.14,1.14,0,0,0-1.6,0,1.16,1.16,0,0,0,0,1.6,10.4,10.4,0,0,0,2.08,1.85,1.13,1.13,0,0,0,1.14-2Z" fill="#db493a"></path><path d="M162.49,102.95a3,3,0,0,1-1.75-1.27c-.79-1.22-2.75-.09-2,1.14a5.42,5.42,0,0,0,3.1,2.31A1.13,1.13,0,0,0,162.49,102.95Z" fill="#db493a"></path><path d="M173.44,95a7.88,7.88,0,0,0-1.65,2.08c-.7,1.28,1.26,2.43,2,1.14A6,6,0,0,1,175,96.65C176.13,95.67,174.53,94.07,173.44,95Z" fill="#db493a"></path><path d="M164.57,117.24a7.39,7.39,0,0,1-2.18-1,1.14,1.14,0,0,0-1.55.41,1.16,1.16,0,0,0,.41,1.55,9.33,9.33,0,0,0,2.72,1.27A1.13,1.13,0,0,0,164.57,117.24Z" fill="#db493a"></path><path d="M188.3,82.85a1.14,1.14,0,0,0-1.55.41l-1,2.09a1.16,1.16,0,0,0,.41,1.55,1.14,1.14,0,0,0,1.55-.41l1-2.09A1.16,1.16,0,0,0,188.3,82.85Z" fill="#db493a"></path><path d="M202.78,93.45l-1.23-.64c-1.29-.67-2.44,1.28-1.14,2l1.23.64C202.93,96.08,204.07,94.13,202.78,93.45Z" fill="#db493a"></path><path d="M179.42,82.07a1.14,1.14,0,0,0-1.13,1.13,2.64,2.64,0,0,1-.43,1.73c-.79,1.23,1.17,2.37,2,1.14a4.68,4.68,0,0,0,.74-2.87A1.16,1.16,0,0,0,179.42,82.07Z" fill="#ffc127"></path><path d="M166.32,94.24a4.37,4.37,0,0,1-1.47-1.45c-.77-1.24-2.73-.1-2,1.14a6.86,6.86,0,0,0,2.28,2.27C166.42,97,167.56,95,166.32,94.24Z" fill="#ffc127"></path><path d="M158.43,114.37l-1.24-.63c-1.3-.65-2.45,1.3-1.14,2l1.24.63C158.59,117,159.74,115,158.43,114.37Z" fill="#ffc127"></path><path d="M170,112.7c-.2-.31-.07-.07,0-.17a1.13,1.13,0,0,0-2.19-.6,2.33,2.33,0,0,0,.27,1.92C168.85,115.07,170.81,113.93,170,112.7Z" fill="#ffc127"></path><path d="M170.67,73.71,170,72.9a1.14,1.14,0,0,0-1.6,0,1.16,1.16,0,0,0,0,1.6l.64.81a1.14,1.14,0,0,0,1.6,0A1.16,1.16,0,0,0,170.67,73.71Z" fill="#ffc127"></path><path d="M209.61,110.35a1.17,1.17,0,0,0-1.13-1.13,1.14,1.14,0,0,0-1.13,1.13l.21,1.66a1.17,1.17,0,0,0,1.13,1.13,1.14,1.14,0,0,0,1.13-1.13Z" fill="#ffc127"></path><path d="M108.69,126v15.77s.69,12.69,7.65,15.49,8.76-6.12,15.72-1.66S129,166,138.25,172.42s12.9-13.92,20.75-9.54-.81,12.63,6.36,18.3,13.75,1.29,13.75,1.29,5.91-3.35,6.49-9.54,6.83-16,11.57-14.18a8.64,8.64,0,0,0,11.41-7c.8-5.67,3-17.71,9.52-18.13s5.2-1.12,11.39-2.83.07-13.38,4.68-15.8,4.6,4.51,10.27,2.72S243.16,97,249.08,95.55s9.64-12.64,10.11-16.21l-80.4,77.91Z" fill="#093e3e" opacity="0.23"></path><path d="M262.18,201.43a6.77,6.77,0,0,0-.44-1.1l-22.67-7.22-63.67,46.14c4.82,4.15-.74,8.53,23.09,22.22C213.48,238.08,246,224,262.18,201.43Z" fill="url(#linear-gradient-2)" style="mix-blend-mode: multiply;"></path><path d="M338.09,75.61l-73.9,102.83c-.18.25,0,1.39.06,1.68.08,2.05.19,4.11.31,6.16.63,10.94-4.81,20.44-12,28.19-4.53,4.85-12.58,12.38-19.87,9.51-6.91-2.73-7.84-13.08-6.46-19.34,1.65-7.52,5.31-17.46,21.33-26.6,0,0,5.76-1.59,8.59-5.33s32.15-45.3,32.15-45.3l40.06-58s5.32-6.87,9.89-5.37S338.09,75.61,338.09,75.61Z" fill="#da4b73"></path></g></g></svg>